<svg id="Capa_1" enable-background="new 0 0 512 512" height="512" viewBox="0 0 512 512" width="512" xmlns="http://www.w3.org/2000/svg"><g><g><path d="m109.346 465.838h293.307c66.11-46.289 109.347-123.009 109.347-209.838 0-141.385-114.615-256-256-256s-256 114.615-256 256c0 86.829 43.237 163.549 109.346 209.838z" fill="#024788"/></g><g><path d="m431.636 145-18.086-103.599c-4.178-23.934-24.958-41.401-49.255-41.401h-216.59c-24.297 0-45.077 17.467-49.255 41.401l-18.086 103.599z" fill="#85d249"/></g><g><path d="m216.351 0h-68.646c-24.297 0-45.077 17.467-49.255 41.401l-18.086 103.599h68.646l18.086-103.599c4.179-23.934 24.959-41.401 49.255-41.401z" fill="#60b550"/></g><g><path d="m207.705 100h96.59c24.297 0 45.077-17.467 49.255-41.401l10.23-58.599h-215.56l10.23 58.599c4.178 23.934 24.958 41.401 49.255 41.401z" fill="#389f4d"/></g><g><path d="m106.571 278.503-7.238-89.708c-.666-8.257-7.9-14.411-16.158-13.745-8.257.666-14.411 7.9-13.745 16.158l7.238 89.708c.666 8.257 7.9 14.411 16.158 13.745 8.257-.667 14.411-7.901 13.745-16.158z" fill="#389f4d"/></g><g><path d="m405.429 278.503 7.238-89.708c.666-8.257 7.9-14.411 16.158-13.745 8.257.666 14.411 7.9 13.745 16.158l-7.238 89.708c-.666 8.257-7.9 14.411-16.158 13.745-8.257-.667-14.411-7.901-13.745-16.158z" fill="#389f4d"/></g><g><path d="m86 170 23.346 295.838c41.538 29.084 92.098 46.162 146.654 46.162s105.116-17.078 146.654-46.162l23.346-295.838z" fill="#85d249"/></g><g><path d="m109.346 465.838c41.538 29.084 92.098 46.162 146.654 46.162s105.116-17.078 146.654-46.162c-131.183 0-239.723-102.065-247.782-232.999l-.791-12.839h267.974l3.945-50h-340z" fill="#60b550"/></g><g><g><path d="m324.27 363.805h-31.391v-15.065c0-3.788-4.58-5.685-7.258-3.007l-29.066 29.066c-3.321 3.321-3.321 8.705 0 12.026l29.066 29.066c2.679 2.679 7.258.781 7.258-3.007v-15.064h31.391l4.961-1.194 8.097-15.813z" fill="#e1eaf9"/></g><g><path d="m324.27 363.805h-31.391c9.393 0 17.008 7.615 17.008 17.007 0 9.393-7.614 17.007-17.007 17.007h31.39l4.961-1.194 8.097-15.813z" fill="#c5def8"/></g><g><path d="m339.071 389.264 14.648-25.427c3.043-5.283 3.04-11.788-.008-17.068l-23.604-40.883c-2.867-4.966-10.307-3.987-11.791 1.552-1.215 4.536-5.878 7.229-10.415 6.013l-.022-.006c-5.538-1.481-10.103 4.471-7.237 9.436l29.852 51.706c4.696 8.135 1.909 18.536-6.225 23.233 6.109 0 11.753-3.262 14.802-8.556z" fill="#e1eaf9"/></g><g><path d="m256.032 245.549 15.695 27.185-13.047 7.533c-3.281 1.894-2.633 6.809 1.025 7.789l39.705 10.639c4.536 1.216 9.199-1.477 10.415-6.013l10.639-39.705c.98-3.659-2.952-6.677-6.233-4.783l-13.047 7.533-15.695-27.185-3.515-3.699-17.743.895z" fill="#e1eaf9"/></g><g><path d="m256.032 245.549 15.695 27.185c-4.697-8.135-1.909-18.536 6.225-23.233 8.134-4.696 18.535-1.91 23.232 6.224l-15.695-27.185-3.515-3.699-17.743.895z" fill="#c5def8"/></g><g><path d="m270.68 220-29.345.028c-6.097.006-11.729 3.261-14.777 8.541l-23.604 40.883c-2.867 4.966 1.701 10.919 7.24 9.435 4.536-1.216 9.199 1.477 10.415 6.013l.006.022c1.486 5.537 8.924 6.514 11.79 1.549l29.852-51.706c4.696-8.135 15.098-10.922 23.233-6.225-3.054-5.289-8.701-8.546-14.81-8.54z" fill="#e1eaf9"/></g><g><path d="m187.746 363.798 15.696-27.185 13.047 7.533c3.281 1.894 7.213-1.124 6.233-4.783l-10.639-39.705c-1.216-4.536-5.878-7.229-10.415-6.013l-39.705 10.639c-3.659.98-4.306 5.895-1.025 7.789l13.047 7.533-15.696 27.185-1.446 4.893 9.646 14.919z" fill="#e1eaf9"/></g><g><path d="m187.746 363.798 15.696-27.185c-4.696 8.135-15.098 10.922-23.233 6.225-8.134-4.696-10.921-15.097-6.226-23.232l-15.695 27.185-1.446 4.893 9.646 14.919z" fill="#c5def8"/></g><g><path d="m158.297 363.887 14.697 25.399c3.054 5.277 8.688 8.527 14.785 8.527h47.208c5.734 0 8.606-6.933 4.551-10.988-3.321-3.321-3.321-8.705 0-12.026l.016-.016c4.052-4.056 1.179-10.985-4.553-10.985h-59.704c-9.393 0-17.007-7.615-17.007-17.008-3.056 5.291-3.053 11.809.007 17.097z" fill="#e1eaf9"/></g></g><g><path d="m441 190h-370c-8.284 0-15-6.716-15-15 0-8.284 6.716-15 15-15l185-15 185 15c8.284 0 15 6.716 15 15 0 8.284-6.716 15-15 15z" fill="#85d249"/></g><g><path d="m137.234 175c0-8.284 6.716-15 15-15v-6.587l-81.234 6.587c-8.284 0-15 6.716-15 15s6.716 15 15 15h81.234c-8.284 0-15-6.716-15-15z" fill="#60b550"/></g><g><path d="m441 160h-370c-8.284 0-15-6.716-15-15 0-8.284 6.716-15 15-15h370c8.284 0 15 6.716 15 15 0 8.284-6.716 15-15 15z" fill="#a3ea6e"/></g><g><path d="m137.234 145c0-8.284 6.716-15 15-15h-81.234c-8.284 0-15 6.716-15 15s6.716 15 15 15h81.234c-8.284 0-15-6.716-15-15z" fill="#85d249"/></g></g></svg>