<svg width="48" height="48" viewBox="0 0 48 48" fill="none" xmlns="http://www.w3.org/2000/svg">
<g clip-path="url(#clip0)">
<path d="M31.656 3.61377H27.2994V2.19927C27.2994 1.37324 27.9691 0.703583 28.7951 0.703583H30.1602C30.9863 0.703583 31.6559 1.37324 31.6559 2.19927V3.61377H31.656Z" fill="#CBC4CC"/>
<path d="M31.6556 2.19902V3.61361H29.8367V2.19902C29.8367 1.45042 29.2869 0.830361 28.5684 0.72058C28.6426 0.70933 28.7185 0.703705 28.7955 0.703705H30.1604C30.9868 0.703705 31.6556 1.37355 31.6556 2.19902Z" fill="#B5ADB6"/>
<path d="M33.1746 7.52963H14.8254L12.8169 12.1923V27.4131V42.6339L14.6139 46.8055C14.7423 47.1035 15.0356 47.2965 15.36 47.2965H32.64C32.9644 47.2965 33.2577 47.1035 33.3861 46.8055L35.1831 42.6339V27.4131V12.1923L33.1746 7.52963Z" fill="#49CB5C"/>
<path d="M35.1829 12.1924V42.6341L33.3864 46.8056C33.2579 47.103 32.9643 47.2962 32.6397 47.2962H30.7636C31.0881 47.2962 31.3818 47.103 31.5103 46.8056L33.3067 42.6341V12.1924L31.2983 7.52917H33.1745L35.1829 12.1924Z" fill="#49CB5C"/>
<path d="M33.8423 7.52961H14.1577C13.0763 7.52961 12.1997 6.65305 12.1997 5.57164C12.1997 4.49033 13.0763 3.61368 14.1577 3.61368H33.8423C34.9237 3.61368 35.8003 4.49024 35.8003 5.57164C35.8003 6.65305 34.9237 7.52961 33.8423 7.52961Z" fill="#028F5D"/>
<path d="M35.8001 5.57146C35.8001 6.11277 35.5815 6.60149 35.2269 6.95606C34.8724 7.30968 34.3826 7.52924 33.8423 7.52924H31.9662C32.5066 7.52924 32.9962 7.30977 33.3508 6.95606C33.7054 6.60149 33.924 6.11268 33.924 5.57146C33.924 4.4908 33.0478 3.61368 31.9662 3.61368H33.8423C34.9239 3.61368 35.8001 4.49071 35.8001 5.57146Z" fill="#E2DEE2"/>
<path d="M12.817 12.1923H35.1831V42.6339H12.817V12.1923Z" fill="#49CB5C"/>
<path d="M33.3068 12.1923H35.183V42.6339H33.3068V12.1923Z" fill="#A2E62E"/>
<path d="M12.817 23.2016H35.1831V31.605H12.817V23.2016Z" fill="#FEE45A"/>
<path d="M33.3067 23.2016H35.183V31.605H33.3067V23.2016Z" fill="#FEDF30"/>
<path d="M24 36.5988C28.0425 36.5988 31.3196 31.978 31.3196 26.278C31.3196 20.578 28.0425 15.9573 24 15.9573C19.9575 15.9573 16.6804 20.578 16.6804 26.278C16.6804 31.978 19.9575 36.5988 24 36.5988Z" fill="#028F5D"/>
<path d="M31.3198 26.2777C31.3198 31.9784 28.0421 36.5984 24 36.5984C23.4202 36.5984 22.8556 36.5036 22.3143 36.3226C26.2186 36.1031 29.3348 31.5703 29.3348 26.0112C29.3348 21.1285 26.9315 17.0394 23.7017 15.9663C23.8002 15.9597 23.8996 15.9569 24 15.9569C28.0422 15.9569 31.3198 20.5778 31.3198 26.2777Z" fill="#08B865"/>
<path d="M35.8292 11.9139L34.2313 8.20453C35.5151 8.01572 36.5038 6.90712 36.5038 5.57175C36.5038 4.10419 35.3099 2.91019 33.8423 2.91019H32.3596V2.19928C32.3596 0.986625 31.373 0 30.1603 0H28.7952C27.5826 0 26.5959 0.986625 26.5959 2.19928V2.91019H20.1869C19.7983 2.91019 19.4833 3.22519 19.4833 3.61378C19.4833 4.00238 19.7983 4.31737 20.1869 4.31737H33.8423C34.534 4.31737 35.0967 4.88006 35.0967 5.57175C35.0967 6.26344 34.534 6.82612 33.8423 6.82612H14.1577C13.466 6.82612 12.9033 6.26344 12.9033 5.57175C12.9033 4.88006 13.466 4.31737 14.1577 4.31737H16.9685C17.3571 4.31737 17.6721 4.00238 17.6721 3.61378C17.6721 3.22519 17.3571 2.91019 16.9685 2.91019H14.1577C12.6901 2.91019 11.4962 4.10409 11.4962 5.57175C11.4962 6.90712 12.485 8.01572 13.7687 8.20453L12.1708 11.9139C12.1707 11.9141 12.1707 11.9143 12.1706 11.9145C12.134 11.9997 12.1134 12.0936 12.1134 12.1923V42.6338C12.1134 42.7325 12.134 42.8263 12.1706 42.9115C12.1707 42.9117 12.1708 42.912 12.1709 42.9122L13.9679 47.0839C14.2077 47.6404 14.7541 48 15.3601 48H32.64C33.246 48 33.7925 47.6404 34.0322 47.0839L35.8292 42.9122C35.8293 42.912 35.8294 42.9117 35.8295 42.9115C35.8661 42.8263 35.8867 42.7325 35.8867 42.6338V12.1923C35.8867 12.0937 35.8661 11.9998 35.8295 11.9145C35.8293 11.9143 35.8293 11.9141 35.8292 11.9139ZM30.9525 2.91019H28.0031V2.19928C28.0031 1.7625 28.3584 1.40709 28.7953 1.40709H30.1604C30.5972 1.40709 30.9526 1.76241 30.9526 2.19928V2.91019H30.9525ZM15.2885 8.23322H32.7115L34.1138 11.4888H13.8862L15.2885 8.23322ZM13.5205 23.9052H16.1634C16.0415 24.6764 15.9767 25.4704 15.9767 26.278C15.9767 27.9002 16.2295 29.4706 16.7084 30.9015H13.5205V23.9052ZM32.7398 46.5272C32.7227 46.5671 32.6834 46.5929 32.6399 46.5929H15.3601C15.3166 46.5929 15.2774 46.5671 15.2602 46.5272L13.8862 43.3374H34.1138L32.7398 46.5272ZM34.4795 41.9303H13.5205V32.3086H17.2736C17.5562 32.9035 17.8824 33.4643 18.2502 33.983C19.7684 36.1235 21.8103 37.3024 23.9999 37.3024C25.3777 37.3024 26.7349 36.8194 27.9247 35.9056C28.2329 35.6689 28.2908 35.2272 28.0542 34.9191C27.8176 34.6109 27.3759 34.553 27.0677 34.7896C26.1124 35.5233 25.0803 35.8953 23.9999 35.8953C20.3517 35.8953 17.3838 31.581 17.3838 26.2781C17.3838 20.9752 20.3517 16.661 23.9999 16.661C27.6481 16.661 30.616 20.9752 30.616 26.2781C30.616 28.5525 30.0543 30.7618 29.0342 32.4991C28.8374 32.8342 28.9496 33.2653 29.2847 33.462C29.6197 33.6587 30.0508 33.5467 30.2476 33.2115C30.4177 32.9217 30.575 32.6195 30.722 32.3087H34.4792V41.9303H34.4795ZM34.4795 30.9014H31.2864C31.7671 29.4617 32.0233 27.882 32.0233 26.2779C32.0233 25.4703 31.9585 24.6763 31.8366 23.9051H34.4795V30.9014ZM34.4795 22.498H31.5422C31.1589 21.0441 30.5542 19.7075 29.7498 18.5731C28.2316 16.4326 26.1897 15.2537 24.0001 15.2537C21.8105 15.2537 19.7686 16.4326 18.2504 18.5731C17.4459 19.7074 16.8412 21.0441 16.458 22.498H13.5207V12.8959H34.4796V22.498H34.4795Z" fill="black"/>
<path d="M21.2277 31.6091H18.8707C18.3591 31.6091 17.8999 31.3433 17.6425 30.8983C17.3821 30.4483 17.381 29.9107 17.6399 29.4602L19.5208 26.1878L19.5654 26.3815C19.6339 26.677 19.8741 26.8872 20.1561 26.9319C20.1931 26.9378 20.2305 26.9414 20.2686 26.9414C20.322 26.9414 20.3766 26.9356 20.4315 26.9227C20.8201 26.8334 21.0621 26.4456 20.9728 26.057L20.5483 24.2183C20.4612 23.84 20.0902 23.5979 19.7086 23.6719L17.7937 24.0403C17.4022 24.1157 17.1459 24.494 17.2213 24.8859C17.2968 25.2774 17.6754 25.5333 18.0669 25.4583L18.3002 25.4132L16.3878 28.7406C15.8693 29.6433 15.8707 30.7203 16.3922 31.6212C16.9111 32.5177 17.8376 33.0531 18.8707 33.0531H21.2277C21.6265 33.0531 21.9495 32.7297 21.9495 32.3309C21.9495 31.9321 21.6265 31.6091 21.2277 31.6091Z" fill="white"/>
<path d="M20.5531 22.942C20.8992 23.1409 21.3405 23.0215 21.539 22.6758L21.5997 22.5703L22.9855 20.1584C23.2429 19.7109 23.7029 19.444 24.2163 19.444C24.7301 19.444 25.1901 19.7109 25.4471 20.1584L27.9249 24.4698L27.7297 24.4241C27.4862 24.3669 27.2427 24.4406 27.0728 24.5991C26.9713 24.6936 26.8959 24.8177 26.8622 24.9628C26.7714 25.351 27.0123 25.7395 27.4005 25.8303L29.2305 26.2581C29.2854 26.2712 29.3407 26.2775 29.3953 26.2775C29.7139 26.2775 30.0043 26.0651 30.0914 25.745L30.6063 23.8561C30.7111 23.4716 30.484 23.0746 30.0995 22.9695C29.7146 22.8647 29.3176 23.0918 29.2129 23.4763L29.1506 23.7048L26.6992 19.4392C26.181 18.538 25.2531 18 24.2163 18C23.1796 18 22.2516 18.538 21.7334 19.4392L20.2869 21.9562C20.0884 22.3019 20.2074 22.7432 20.5531 22.942Z" fill="white"/>
<path d="M32.0448 28.7406L31.1146 27.1223C30.9161 26.7766 30.4745 26.6572 30.1288 26.8561C29.7831 27.0549 29.6641 27.4962 29.8626 27.8419L29.8955 27.8991L30.7927 29.4602C31.0516 29.9107 31.0509 30.4483 30.7905 30.8983C30.5331 31.3433 30.0739 31.6091 29.5619 31.6091H25.1084L25.2952 31.4066C25.4028 31.2898 25.4636 31.1473 25.4805 31.0009C25.5065 30.7793 25.4299 30.549 25.2534 30.3864C24.9605 30.1157 24.5034 30.1344 24.2332 30.4277L22.9569 31.8128C22.6947 32.0969 22.7035 32.5371 22.976 32.8114L24.3547 34.1961C24.4957 34.3378 24.681 34.4088 24.8663 34.4088C25.0505 34.4088 25.2348 34.3385 25.3757 34.1982C25.6581 33.917 25.6592 33.46 25.3779 33.1773L25.2542 33.0531H29.5619C30.595 33.0531 31.5215 32.5181 32.0404 31.6216C32.5619 30.7203 32.5637 29.6433 32.0448 28.7406Z" fill="white"/>
</g>
<defs>
<clipPath id="clip0">
<rect width="48" height="48" fill="white"/>
</clipPath>
</defs>
</svg>
