<svg width="48" height="48" viewBox="0 0 48 48" fill="none" xmlns="http://www.w3.org/2000/svg">
<g clip-path="url(#clip0)">
<path d="M35.1677 14.674V16.5381H26.7849V8.15533H28.649L35.1677 14.674Z" fill="#D8ECFE"/>
<path d="M35.1677 47.301H5.37619V8.15533H28.6487L35.1677 14.6743V47.301Z" fill="#49CB5C"/>
<path d="M35.1677 14.674V16.5381H26.7849V8.15533H28.649L35.1677 14.674Z" fill="#DBEBFC"/>
<path d="M5.37601 8.15533H8.1721V47.3009H5.37601V8.15533Z" fill="#028F5D"/>
<path d="M23.4074 33.651V31.8098L19.772 35.5569L23.4074 39.3041V37.4693H29.7302L27.5257 33.651H23.4074Z" fill="white"/>
<path d="M28.7697 28.1694L25.5096 30.159L29.7302 37.4692L31.9907 33.7478L28.7697 28.1694Z" fill="white"/>
<path d="M12.9623 33.651L15.0498 30.0353L16.6302 30.9476L15.2028 25.9256L10.1399 27.2004L11.7431 28.126L8.5531 33.651L10.7577 37.4693H17.1058V33.651H12.9623Z" fill="white"/>
<path d="M8.5531 33.651L10.7577 37.4692H17.1058V33.651H8.5531Z" fill="white"/>
<path d="M25.6302 22.7314L22.4486 17.2206H18.0394L14.9979 22.4889L18.3015 24.4029L20.244 21.0387L22.3235 24.6405L20.7222 25.565L25.7851 26.8399L27.2126 21.8178L25.6302 22.7314Z" fill="white"/>
<path d="M22.4486 17.2206H18.0394L14.9979 22.4889L18.3015 24.4029L22.4486 17.2206Z" fill="white"/>
<path d="M12.8325 4.48594V0.699005H42.624V39.8447H38.8958V4.48594H12.8325Z" fill="#028F5D"/>
<path d="M9.10434 8.15531V4.48593H38.8958V43.6315H35.1677V14.6743L28.6487 8.15531H9.10434Z" fill="#028F5D"/>
<path d="M28.6487 14.6743H35.1677L28.6487 8.15533V14.6743Z" fill="#028F5D"/>
<path d="M32.5996 33.3964L29.3786 27.8179C29.1235 27.4611 28.7983 27.3782 28.4035 27.5692L25.1434 29.5589C24.8176 29.7577 24.71 30.1802 24.9008 30.5107L26.308 32.948H24.1106V31.8097C24.1106 31.5234 23.937 31.2657 23.6716 31.1582C23.4065 31.0507 23.1022 31.1147 22.9029 31.3202L19.2673 35.0674C19.0027 35.3401 19.0027 35.7738 19.2673 36.0466L22.9029 39.7939C23.1427 40.0061 23.3989 40.0601 23.6716 39.9559C23.937 39.8484 24.1106 39.5906 24.1106 39.3043V38.1726H29.7223C29.9694 38.1663 30.2007 38.0494 30.3311 37.8345L32.5916 34.1132C32.725 33.8934 32.7281 33.6187 32.5996 33.3964ZM23.4075 36.7661C23.0191 36.7661 22.7044 37.0808 22.7044 37.4692V37.5697L20.7517 35.5568L22.7044 33.5441V33.651C22.7044 34.0394 23.0191 34.3541 23.4075 34.3541H27.1197L28.5123 36.7661H23.4075ZM29.7456 36.0896L26.4617 30.4017L28.5211 29.1449L31.1736 33.7388L29.7456 36.0896Z" fill="black"/>
<path d="M17.1058 32.9479H14.1802L15.3071 30.9957L16.2786 31.5565C16.9101 31.8866 17.4843 31.4999 17.3065 30.7553L15.879 25.7333C15.7751 25.3678 15.3988 25.1508 15.031 25.2437L9.96817 26.5185C9.26945 26.6836 9.18742 27.3867 9.78826 27.8093L10.7825 28.3834L7.94411 33.2995C7.81998 33.5132 7.81998 33.789 7.94411 34.0026L10.1487 37.8209C10.2744 38.0384 10.5064 38.1724 10.7576 38.1724H17.1057C17.4941 38.1724 17.8089 37.8577 17.8089 37.4693V33.6511C17.809 33.2627 17.4941 32.9479 17.1058 32.9479ZM11.9935 27.4588L14.713 26.774L15.4797 29.4715C15.1368 29.2967 14.6672 29.2916 14.441 29.6837L12.5564 32.9479H9.77101L12.352 28.4776C12.8295 27.7281 11.9935 27.4588 11.9935 27.4588ZM16.4027 36.7661H11.1637L9.77101 34.3541H16.4027V36.7661Z" fill="black"/>
<path d="M21.363 24.3831L20.3707 24.956C19.8508 25.4671 19.9108 25.8974 20.5506 26.2469L25.6134 27.5218C25.9624 27.6058 26.245 27.4427 26.4614 27.0321L27.8888 22.0101C27.906 21.2815 27.5634 21.0144 26.861 21.209L25.8876 21.7709L23.0574 16.869C22.9327 16.6548 22.6969 16.5174 22.4485 16.5174H18.0394C17.7881 16.5174 17.5561 16.6515 17.4305 16.869L14.3889 22.1374C14.195 22.4734 14.3097 22.9028 14.6454 23.0973L17.949 25.0113C18.3405 25.1915 18.6609 25.1059 18.9104 24.7545L20.244 22.4449L21.363 24.3831ZM26.0619 23.294L25.2952 25.9914L22.5758 25.3067C22.9089 25.1011 23.1635 24.6894 22.9324 24.2889L21.0559 21.0387L22.4485 18.6267L25.0213 23.0829C25.3945 23.6836 26.0619 23.294 26.0619 23.294ZM18.0447 23.4415L15.9578 22.2325L18.4453 17.9237H21.2306L18.0447 23.4415Z" fill="black"/>
<path d="M42.624 0H12.8325C12.4464 0 12.1335 0.312937 12.1335 0.699V3.78684H9.10416C8.7181 3.78684 8.40516 4.09978 8.40516 4.48584V7.45622H5.376C4.98994 7.45622 4.677 7.76916 4.677 8.15522V15.6973C4.677 16.0834 4.98994 16.3963 5.376 16.3963C5.76206 16.3963 6.075 16.0834 6.075 15.6973V8.85441H27.9497V14.6744C27.9497 15.0605 28.2626 15.3734 28.6487 15.3734H34.4687V46.602H29.2511C28.8651 46.602 28.5521 46.9149 28.5521 47.301C28.5521 47.6871 28.8651 48 29.2511 48H35.1678C35.5538 48 35.8668 47.6871 35.8668 47.301V44.3306H38.8959C39.282 44.3306 39.5949 44.0177 39.5949 43.6316V40.5438H42.6241C43.0102 40.5438 43.3231 40.2308 43.3231 39.8448V0.699C43.323 0.312937 43.0101 0 42.624 0V0ZM29.3477 13.9753V9.84291L33.4801 13.9753H29.3477ZM41.925 39.1456H39.5949V11.7474C39.5949 11.3614 39.282 11.0484 38.8959 11.0484C38.5099 11.0484 38.1969 11.3614 38.1969 11.7474V42.9325H35.8669V14.674C35.8669 14.4915 35.791 14.3087 35.6621 14.1797L29.1434 7.66097C29.0139 7.53169 28.832 7.45631 28.6491 7.45631H9.80316V5.18494H38.1968V8.70159C38.1968 9.08766 38.5097 9.40059 38.8958 9.40059C39.2818 9.40059 39.5947 9.08766 39.5947 8.70159V4.48594C39.5947 4.09987 39.2818 3.78694 38.8958 3.78694H13.5315V1.39809H41.925V39.1456Z" fill="black"/>
<path d="M26.2052 46.6019H6.075V18.7443C6.075 18.3582 5.76206 18.0453 5.376 18.0453C4.98994 18.0453 4.677 18.3582 4.677 18.7443V47.301C4.677 47.6871 4.98994 48 5.376 48H26.2052C26.5913 48 26.9042 47.6871 26.9042 47.301C26.9042 46.9149 26.5913 46.6019 26.2052 46.6019Z" fill="black"/>
</g>
<defs>
<clipPath id="clip0">
<rect width="48" height="48" fill="white"/>
</clipPath>
</defs>
</svg>
