<svg width="48" height="48" viewBox="0 0 48 48" fill="none" xmlns="http://www.w3.org/2000/svg">
<path d="M34.5 2.25L33 15H29.25L28.5 12C28.3305 11.545 28.0218 11.1551 27.6178 10.8858C27.2138 10.6165 26.7352 10.4815 26.25 10.5H21.75C21.2648 10.4815 20.7862 10.6165 20.3822 10.8858C19.9782 11.1551 19.6695 11.545 19.5 12L18.75 15H15L13.5 2.25H6.75V45.75H41.25V2.25H34.5Z" fill="#49CB5C"/>
<path d="M41.25 5.25V2.25H34.5L34.1468 5.25H41.25Z" fill="#07B128"/>
<path d="M13.8533 5.25L13.5 2.25H6.75V5.25H13.8533Z" fill="#07B128"/>
<path d="M6.75 42.75H41.25V45.75H6.75V42.75Z" fill="#07B128"/>
<path d="M34.5 39H36V40.5H34.5V39Z" fill="#F4F4E6"/>
<path d="M37.5 36.75H39V38.25H37.5V36.75Z" fill="#F4F4E6"/>
<path d="M30.624 32.5838L29.124 30.3338C29.0136 30.1683 28.842 30.0534 28.6469 30.0144C28.4518 29.9755 28.2492 30.0156 28.0837 30.126C27.9182 30.2364 27.8034 30.408 27.7644 30.6031C27.7255 30.7982 27.7656 31.0008 27.876 31.1663L28.5982 32.25H25.0605L25.2802 32.0303C25.4169 31.8888 25.4925 31.6994 25.4907 31.5027C25.489 31.3061 25.4102 31.1179 25.2711 30.9789C25.132 30.8398 24.9439 30.761 24.7473 30.7592C24.5506 30.7575 24.3612 30.8331 24.2197 30.9698L22.7197 32.4698C22.5791 32.6104 22.5002 32.8011 22.5002 33C22.5002 33.1989 22.5791 33.3896 22.7197 33.5303L24.2197 35.0303C24.3612 35.1669 24.5506 35.2425 24.7473 35.2408C24.9439 35.2391 25.132 35.1602 25.2711 35.0211C25.4102 34.8821 25.489 34.694 25.4907 34.4973C25.4925 34.3007 25.4169 34.1112 25.2802 33.9698L25.0605 33.75H30C30.1358 33.75 30.269 33.7132 30.3855 33.6434C30.502 33.5736 30.5973 33.4736 30.6614 33.3538C30.7254 33.2341 30.7558 33.0992 30.7492 32.9636C30.7426 32.828 30.6993 32.6967 30.624 32.5838Z" fill="#FCF05A"/>
<path d="M23.124 25.1662L23.949 23.9257L25.7077 27H24.75C24.5511 27 24.3603 27.079 24.2196 27.2197C24.079 27.3603 24 27.5511 24 27.75C24 27.9489 24.079 28.1397 24.2196 28.2803C24.3603 28.421 24.5511 28.5 24.75 28.5H27C27.1574 28.5 27.3109 28.4505 27.4387 28.3584C27.5664 28.2664 27.662 28.1364 27.7117 27.987L28.4617 25.737C28.4928 25.6434 28.5052 25.5447 28.4982 25.4463C28.4911 25.3479 28.4648 25.2519 28.4206 25.1638C28.3765 25.0756 28.3154 24.997 28.2408 24.9324C28.1663 24.8679 28.0798 24.8186 27.9862 24.7875C27.8926 24.7564 27.7939 24.744 27.6955 24.751C27.5972 24.7581 27.5012 24.7844 27.413 24.8286C27.3248 24.8728 27.2462 24.9338 27.1816 25.0084C27.1171 25.0829 27.0678 25.1694 27.0367 25.263L26.8177 25.9215L24.651 22.125C24.5872 22.0144 24.4963 21.922 24.3869 21.8564C24.2774 21.7907 24.153 21.7541 24.0255 21.75C23.8976 21.7448 23.7706 21.7728 23.6568 21.8313C23.5429 21.8898 23.4462 21.9768 23.376 22.0837L21.876 24.3337C21.8213 24.4157 21.7833 24.5076 21.7642 24.6042C21.745 24.7009 21.7451 24.8003 21.7644 24.8969C21.7837 24.9935 21.8218 25.0853 21.8766 25.1672C21.9314 25.2491 22.0018 25.3193 22.0837 25.374C22.1657 25.4287 22.2576 25.4666 22.3542 25.4858C22.4508 25.5049 22.5503 25.5049 22.6469 25.4856C22.7435 25.4663 22.8353 25.4281 22.9172 25.3734C22.999 25.3186 23.0693 25.2482 23.124 25.1662Z" fill="#FCF05A"/>
<path d="M21.7117 27.513C21.662 27.3636 21.5665 27.2336 21.4387 27.1416C21.311 27.0495 21.1575 27 21 27H18.75C18.5511 27 18.3603 27.079 18.2197 27.2197C18.079 27.3603 18 27.5511 18 27.75C18 27.9489 18.079 28.1397 18.2197 28.2803C18.3603 28.421 18.5511 28.5 18.75 28.5H19.7077L17.349 32.625C17.2831 32.7391 17.2484 32.8686 17.2485 33.0004C17.2486 33.1321 17.2834 33.2616 17.3494 33.3756C17.4154 33.4897 17.5102 33.5844 17.6245 33.6501C17.7387 33.7158 17.8682 33.7503 18 33.75H20.25C20.4489 33.75 20.6397 33.671 20.7803 33.5303C20.921 33.3897 21 33.1989 21 33C21 32.8011 20.921 32.6103 20.7803 32.4697C20.6397 32.329 20.4489 32.25 20.25 32.25H19.2922L20.8192 29.5785L21.0382 30.237C21.0694 30.3306 21.1186 30.4171 21.1832 30.4916C21.2477 30.5662 21.3263 30.6272 21.4145 30.6714C21.5027 30.7156 21.5987 30.7419 21.697 30.749C21.7954 30.756 21.8942 30.7436 21.9877 30.7125C22.0813 30.6814 22.1678 30.6321 22.2424 30.5676C22.3169 30.503 22.378 30.4244 22.4221 30.3362C22.4663 30.2481 22.4926 30.1521 22.4997 30.0537C22.5068 29.9553 22.4944 29.8566 22.4632 29.763L21.7117 27.513Z" fill="#FCF05A"/>
</svg>
