<svg width="48" height="48" viewBox="0 0 48 48" fill="none" xmlns="http://www.w3.org/2000/svg">
<g clip-path="url(#clip0)">
<path d="M2.12366 45.0762V17.595C2.12366 7.9292 9.92322 0.09375 19.5447 0.09375C29.1661 0.09375 36.9657 7.9292 36.9657 17.595V44.8784" fill="#49CB5C"/>
<path d="M19.5447 0.09375C18.7445 0.09375 17.9575 0.149048 17.1859 0.25415C25.6919 1.41064 32.2485 8.73303 32.2485 17.595V44.8784L2.12366 45.0494V45.0762L36.9657 44.8784V17.595C36.9661 7.9292 29.1661 0.09375 19.5447 0.09375Z" fill="#07B128"/>
<path d="M37.6011 47.9H1.48828C0.666138 47.9 0 47.2335 0 46.4117V46.3773C0 45.5555 0.666138 44.889 1.48828 44.889H37.6011C38.4232 44.889 39.0894 45.5555 39.0894 46.3773V46.4117C39.0894 47.2335 38.4232 47.9 37.6011 47.9Z" fill="#028F5D"/>
<path d="M16.556 33.2292H14.1991C13.6875 33.2292 13.2283 32.9634 12.9708 32.5184C12.7105 32.0683 12.7094 31.5307 12.9683 31.0803L14.8491 27.8078L14.8938 28.0016C14.9623 28.2971 15.2025 28.5073 15.4845 28.552C15.5215 28.5578 15.5588 28.5615 15.5969 28.5615C15.6504 28.5615 15.705 28.5556 15.7599 28.5428C16.1484 28.4535 16.3905 28.0657 16.3011 27.6771L15.8767 25.8384C15.7896 25.4601 15.4186 25.218 15.037 25.292L13.1221 25.6604C12.7306 25.7358 12.4742 26.1141 12.5497 26.506C12.6251 26.8974 13.0038 27.1534 13.3953 27.0784L13.6285 27.0333L11.7162 30.3607C11.1976 31.2634 11.1991 32.3404 11.7206 33.2413C12.2395 34.1378 13.166 34.6732 14.1991 34.6732H16.556C16.9548 34.6732 17.2778 34.3498 17.2778 33.951C17.2778 33.5522 16.9548 33.2292 16.556 33.2292Z" fill="white"/>
<path d="M15.8815 24.5621C16.2276 24.761 16.6688 24.6416 16.8673 24.2959L16.9281 24.1904L18.3139 21.7786C18.5713 21.3311 19.0313 21.0641 19.5447 21.0641C20.0585 21.0641 20.5184 21.3311 20.7755 21.7786L23.2533 26.09L23.0581 26.0442C22.8146 25.9871 22.5711 26.0607 22.4011 26.2192C22.2997 26.3137 22.2243 26.4379 22.1906 26.5829C22.0997 26.9711 22.3407 27.3596 22.7289 27.4504L24.5588 27.8782C24.6138 27.8914 24.6691 27.8976 24.7236 27.8976C25.0422 27.8976 25.3326 27.6852 25.4198 27.3651L25.9347 25.4762C26.0394 25.0917 25.8124 24.6947 25.4279 24.5896C25.043 24.4849 24.646 24.7119 24.5413 25.0964L24.479 25.325L22.0276 21.0593C21.5094 20.1581 20.5814 19.6201 19.5447 19.6201C18.5079 19.6201 17.58 20.1581 17.0618 21.0593L15.6153 23.5763C15.4168 23.922 15.5358 24.3633 15.8815 24.5621Z" fill="white"/>
<path d="M27.3732 30.3607L26.443 28.7424C26.2445 28.3967 25.8029 28.2774 25.4572 28.4762C25.1115 28.6751 24.9924 29.1163 25.1909 29.462L25.2239 29.5192L26.1211 31.0803C26.38 31.5308 26.3793 32.0684 26.1189 32.5184C25.8615 32.9634 25.4022 33.2293 24.8903 33.2293H20.4368L20.6235 33.0267C20.7312 32.9099 20.792 32.7675 20.8088 32.621C20.8349 32.3994 20.7583 32.1691 20.5818 32.0065C20.2888 31.7359 19.8318 31.7545 19.5615 32.0479L18.2853 33.4329C18.0231 33.7171 18.0319 34.1572 18.3043 34.4315L19.6831 35.8162C19.8241 35.9579 20.0094 36.0289 20.1947 36.0289C20.3789 36.0289 20.5631 35.9586 20.7041 35.8184C20.9865 35.5371 20.9876 35.0801 20.7063 34.7974L20.5825 34.6732H24.8903C25.9233 34.6732 26.8499 34.1382 27.3688 33.2417C27.8903 32.3405 27.8921 31.2634 27.3732 30.3607Z" fill="white"/>
<path d="M6.09119 14.2079C9.14612 14.2079 11.6228 11.606 11.6228 8.39612C11.6228 6.3988 10.6637 4.6366 9.20288 3.59033L9.15418 3.54675C6.05859 5.86121 3.75513 9.18384 2.72351 13.0305L2.88062 13.1298C3.78589 13.8087 4.89404 14.2079 6.09119 14.2079Z" fill="#028F5D"/>
<path d="M43.9882 19.1708L43.9841 14.6825C43.9838 14.3925 44.2189 14.157 44.5089 14.1566C44.7993 14.1563 45.0341 13.9208 45.0341 13.6307L45.0319 11.4404C45.0315 11.15 44.796 10.9149 44.5056 10.9153L39.4695 10.9204C39.1794 10.9204 38.9443 11.1559 38.9447 11.4463L38.9465 13.6366C38.9469 13.9266 39.1824 14.1617 39.4728 14.1614C39.7628 14.1614 39.9983 14.3965 39.9987 14.6865L40.0031 19.1744C40.0045 20.7744 39.2714 22.2865 38.0145 23.2764C36.7573 24.2659 36.0242 25.778 36.0256 27.3779L36.0443 46.4011C36.045 47.2299 36.7174 47.9008 37.5461 47.9L46.5011 47.8912C47.3298 47.8905 48.0007 47.2181 48 46.3894L47.9817 27.3662C47.9799 25.7666 47.2438 24.2556 45.9847 23.2687C44.7257 22.2814 43.99 20.7708 43.9882 19.1708Z" fill="#22B27F"/>
<path d="M47.9817 27.3662C47.9799 25.7666 47.2438 24.2556 45.9847 23.2687C44.7257 22.2814 43.99 20.7708 43.9882 19.1708L43.9838 14.6825C43.9838 14.3925 44.2185 14.157 44.5089 14.1566C44.799 14.1563 45.0341 13.9208 45.0337 13.6307L45.0319 11.4404C45.0315 11.15 44.796 10.9149 44.5056 10.9153L40.3326 10.9193C40.593 10.9504 40.7955 11.1713 40.7959 11.4404L40.7977 13.6307C40.7981 13.9208 40.563 14.1563 40.273 14.1566C40.1115 14.1566 39.9675 14.2299 39.8712 14.3445C39.9503 14.4364 39.9983 14.5558 39.9987 14.6865L40.0031 19.1744C40.0034 19.5582 39.9602 19.9365 39.8793 20.3042C40.1397 21.4673 40.793 22.5187 41.7488 23.2687C43.0078 24.2556 43.7439 25.7666 43.7457 27.3662L43.764 46.3894C43.7648 47.2181 43.0939 47.8905 42.2651 47.8912L37.4645 47.896C37.4916 47.8975 37.5187 47.9 37.5461 47.9L46.5011 47.8912C47.3298 47.8905 48.0007 47.2181 48 46.3894L47.9817 27.3662Z" fill="#09A66D"/>
<path d="M41.1647 30.1498H48V39.4882H41.1647V30.1498Z" fill="#FFE469"/>
</g>
<defs>
<clipPath id="clip0">
<rect width="48" height="48" fill="white"/>
</clipPath>
</defs>
</svg>
